<?xml version="1.0" encoding="utf-8"?>
<!-- Generator: Adobe Illustrator 24.3.0, SVG Export Plug-In . SVG Version: 6.00 Build 0)  -->
<svg version="1.1" id="Layer_1" xmlns="http://www.w3.org/2000/svg" xmlns:xlink="http://www.w3.org/1999/xlink" x="0px" y="0px"
	 viewBox="0 0 512 512" style="enable-background:new 0 0 0 0;" xml:space="preserve">
<style type="text/css">
	.st0{fill:#FFFFFF;}
	.st1{fill:#EF945A;}
	.st2{fill:#CE4A63;}
	.st3{fill:#AD2931;}
	.st4{fill:#FF6600;}
	.st5{fill:#F7CEB5;}
	.st6{fill:#EFAD84;}
	.st7{fill:#EFAD7B;}
</style>
<g id="XMLID_1_">
	<path id="XMLID_3_" class="st0" d="M0,325.58c0-46.43,0-92.86,0-139.15c170.71,0,341.29,0,512,0c0,46.43,0,92.72,0,139.15
		C341.29,325.58,170.71,325.58,0,325.58L0,325.58z"/>
	<path id="XMLID_4_" class="st1" d="M97.63,320.11c136.07,0,272.13,0,408.34,0.14c0,0.14-0.14,0.14-0.14,0.28
		c-136.21-0.14-272.41-0.14-408.48-0.14C97.35,320.25,97.49,320.11,97.63,320.11L97.63,320.11z"/>
	<path id="XMLID_5_" class="st2" d="M6.03,320.39L6.03,320.39c22.02,0,44.05,0,66.07,0C49.94,320.39,27.91,320.39,6.03,320.39z"/>
	<path id="XMLID_6_" class="st2" d="M6.03,192.46L6.03,192.46c0,42.64,0,85.29,0,127.79l0,0c-0.14,0-0.14,0-0.14,0
		c0-42.64,0-85.29,0-127.93C5.89,192.46,5.89,192.46,6.03,192.46L6.03,192.46z"/>
	<path id="XMLID_7_" class="st3" d="M71.96,320.39c-22.02,0-44.05,0-66.07,0c0-42.64,0-85.15,0-127.79
		c22.02,0,44.05-0.14,66.07-0.14c2.24,0.14,4.63,0.28,6.87,0.42c0.14,0.14,2.95,0.42,3.09,0.7c12.48,2.24,22.58,8.14,32.12,16.27
		c4.63,4.77,8.28,9.54,11.92,15.15c1.26,2.67,2.52,5.33,3.79,8c1.82,5.89,3.09,11.22,4.07,17.11c0,3.23,0.14,6.45,0.28,9.68
		c-0.28,2.38-0.56,4.91-0.84,7.29c-1.96,9.68-5.47,17.81-10.8,25.95c-2.67,3.51-2.67,3.51-2.95,3.93
		c-7.01,7.43-13.89,12.91-23,17.53c-2.24,0.84-4.49,1.68-6.73,2.52C84.16,318.98,78.13,320.11,71.96,320.39L71.96,320.39z"/>
	<path id="XMLID_8_" class="st4" d="M97.63,320.11c8.42-3.79,15.71-8.56,22.58-14.73c0.28-0.42,2.67-2.81,6.73-7.57
		c3.79-5.19,7.01-10.38,9.96-16.27c0.84-2.24,1.68-4.49,2.52-6.73c4.77-15.85,4.49-31.28-0.42-47.13c-0.84-2.1-1.68-4.21-2.38-6.31
		c-4.77-9.26-10.38-16.97-17.81-24.13c-1.96-1.68-3.79-3.23-5.75-4.77c130.88,0,261.89-0.14,392.77-0.14l0.14,0.14
		c0,42.5,0,85.01,0,127.65C369.9,320.11,233.7,320.11,97.63,320.11L97.63,320.11z"/>
	<path id="XMLID_9_" class="st0" d="M69.72,306.78c-2.67-18.8-5.75-37.87-7.86-56.67c2.95-1.54,3.79-4.77,4.77-7.72
		c0.56-3.23,1.4-6.87,1.26-10.24c-5.75,0.14-11.92,0.7-17.11,3.23c-6.45,0-6.87-8.98-0.14-9.68c5.75,2.24,11.5,3.09,17.53,3.23
		c-0.28-6.03-0.98-11.64-3.23-17.25c0-1.68,0.42-2.52,1.4-3.79c3.79-2.52,7.43-0.84,8.14,3.65c-2.38,5.75-2.67,10.94-3.23,17.11
		c0.14,0,0.14,0.14,0.28,0.14c5.89-0.28,11.78-0.84,17.25-3.23c6.59,0.56,6.31,9.68-0.14,9.68c-5.19-2.67-11.64-2.95-17.25-3.09
		c0.42,3.51,0.7,16.55,6.31,17.96c-0.28,2.95-0.42,3.09-6.03,44.75C71.4,295,70,306.5,69.72,306.78L69.72,306.78z"/>
	<path id="XMLID_10_" class="st0" d="M374.67,295.98c-8.42-0.7-13.89-3.65-18.66-10.8c-0.7-1.54-1.4-2.95-2.1-4.49
		c-4.49-17.39,4.07-35.35,22.86-37.59c5.19,0,10.1,1.26,15.15,2.95c-0.14,0.7-0.14,0.7-2.95,8.28c-1.4-0.14-1.4-0.14-4.63-0.84
		c-1.82,0-3.79,0-5.61,0c-3.93,0.98-6.59,2.1-9.26,5.05c-5.33,7.86-6.31,18.52,1.96,24.97c0.98,0.42,2.1,0.98,3.09,1.4
		c4.91,0.7,9.68,0.28,14.31-1.12c0.98-0.42,0.98-0.42,1.4-0.42c0.98,1.96,2.81,4.49,3.23,6.59
		C387.44,293.17,381.4,295.14,374.67,295.98L374.67,295.98z"/>
	<path id="XMLID_11_" class="st0" d="M225.84,233.84c-1.26,0-2.67,0-3.79,0c-8.56,0-15.57,4.91-20.34,11.64
		c-1.4,3.09-2.1,5.19-2.24,5.33c-1.68,7.01-1.26,13.33,1.12,20.06c3.37,6.59,7.15,9.96,13.89,12.62c1.4,0.28,2.95,0.56,4.35,0.84
		c3.09,0,8,0.42,10.52-0.98c0-5.33,0-10.8,0.14-16.13c0-0.14,0-0.14-12.34-0.28c0-3.37,0-6.87,0-10.24v-0.14c8.28,0,16.55,0,24.97,0
		c0,11.36,0,22.72,0.14,34.23c-2.38,0.84-4.77,1.68-7.15,2.38c-4.07,0.98-8,1.96-12.2,2.38c-5.89,0.28-10.8-0.28-16.41-1.96
		c-10.8-4.49-17.11-12.06-20.34-23.29c-1.68-8.84-1.68-16.27,0.98-24.97c1.68-4.35,4.07-7.86,6.87-11.5
		c5.19-5.19,10.24-7.72,17.11-10.24c9.96-2.1,19.5-0.98,29.32,1.68c-1.12,3.23-2.24,6.45-3.37,9.82
		C230.05,234.26,230.05,234.26,225.84,233.84L225.84,233.84z"/>
	<path id="XMLID_14_" class="st0" d="M273.25,243.24c-6.17,0.28-12.2,2.52-18.38,5.05c0.98,2.38,1.82,4.91,2.81,7.43
		c2.67-0.84,5.33-1.68,8.14-2.52c2.95-0.7,6.31-0.84,9.4-0.28c4.77,1.96,4.91,5.75,5.05,10.38c-8.56,0.56-16.55,0.7-23.85,5.47
		c-1.54,1.54-3.23,2.95-4.21,4.91c-1.54,4.21-1.4,7.72-0.42,11.92c2.38,5.05,4.91,7.57,10.1,9.54c7.43,1.4,12.76-1.54,18.24-6.59
		c0.14,0,0.14,0.14,0.28,0.14c0.7,5.19,0.98,5.33,0.98,5.61c3.65,0,7.15,0,10.8,0.14c0-12.2-0.14-24.27-0.14-36.47
		c-0.98-5.47-2.67-9.26-7.29-12.48C280.69,243.66,276.9,243.09,273.25,243.24z M280.13,271.15c0,3.09,0.14,6.17,0.14,9.12
		c-2.1,3.65-7.72,5.33-11.64,5.75c-2.81-0.7-4.63-1.54-5.89-4.35C261.05,271.85,272.97,271.43,280.13,271.15z"/>
	<path id="XMLID_17_" class="st0" d="M444.67,243.09c-5.89,0.7-11.64,2.67-17.11,5.19c-0.42,1.12,1.82,5.89,2.81,7.43
		c5.47-1.96,9.96-3.37,15.71-3.37c0.14,0.14,0.14,0.28,2.1,0.56c4.21,2.24,4.21,5.75,4.63,10.24c-10.38,0.7-24.41,0.56-28.76,12.34
		c-1.96,9.82,2.95,18.52,13.05,20.06c6.31,0,11.08-2.81,15.43-7.15c0.14,0,0.28,0,0.42,0c0.7,5.05,0.7,5.05,0.98,6.03
		c3.51,0,7.01-0.14,10.52-0.14c0-11.5,0-22.86,0-34.37c-0.56-7.01-2.38-11.08-8.28-15.01c-3.23-1.26-4.63-1.54-4.91-1.68
		C449.3,243.38,446.91,243.24,444.67,243.09z M452.8,271.15c0,3.23,0,6.45,0.14,9.68c-4.35,3.51-12.34,8.7-16.83,2.38
		C431.34,272.69,445.93,271.29,452.8,271.15z"/>
	<path id="XMLID_18_" class="st1" d="M330.63,294.58c4.07,0,8.14-0.14,12.2-0.14C342.13,295.14,332.17,294.58,330.63,294.58z"/>
	<path id="XMLID_19_" class="st1" d="M454.07,294.58c3.51,0,7.01-0.14,10.52-0.14h0.14c-0.14,0-0.28,0.14-0.42,0.14
		C460.94,294.58,457.43,294.58,454.07,294.58L454.07,294.58z"/>
	<path id="XMLID_20_" class="st1" d="M281.25,294.44c3.65,0,7.15,0,10.8,0.14C281.11,294.44,281.11,294.44,281.25,294.44z"/>
	<path id="XMLID_21_" class="st1" d="M304.39,218.41c0,25.39,0,50.64,0.14,76.03c4.07,0,8.28,0,12.48,0c-4.35,0-8.56,0-12.91,0
		C304.25,269.05,304.39,243.8,304.39,218.41z"/>
	<path id="XMLID_22_" class="st1" d="M402.73,294.44c4.07,0,8.28,0,12.48,0C402.73,294.58,402.73,294.58,402.73,294.44z"/>
	<path id="XMLID_23_" class="st1" d="M330.35,244.36c0,16.69,0,33.53,0,50.22C330.2,294.58,330.2,294.58,330.35,244.36z"/>
	<path id="XMLID_24_" class="st0" d="M330.35,294.58c0-16.69,0-33.53,0-50.22h0.14c4.07,0,8.14,0,12.2,0
		c0,16.69,0.14,33.39,0.14,50.08c-4.07,0-8.14,0-12.2,0.14C330.49,294.58,330.49,294.58,330.35,294.58z"/>
	<path id="XMLID_25_" class="st0" d="M304.39,218.41c0-0.14,0-0.14,0-0.28c4.21,0,8.42,0,12.62,0c0,25.39,0,50.92,0,76.31
		c-4.21,0-8.42,0-12.48,0C304.53,269.05,304.39,243.8,304.39,218.41L304.39,218.41z"/>
	<path id="XMLID_26_" class="st0" d="M402.73,294.44c0-16.69,0-33.39,0-49.94c4.07,0,8.28-0.14,12.34-0.14
		c0,16.69,0.14,33.39,0.14,50.08C411.14,294.44,406.93,294.44,402.73,294.44z"/>
	<path id="XMLID_27_" class="st5" d="M464.59,294.44c0-11.5,0-22.86,0-34.37c0,11.5,0,22.86,0.14,34.37H464.59L464.59,294.44z"/>
	<path id="XMLID_28_" class="st5" d="M241.83,290.79c0-11.5-0.14-22.86-0.14-34.23l0.14-0.14
		C241.83,267.78,241.83,279.29,241.83,290.79z"/>
	<path id="XMLID_29_" class="st6" d="M452.8,280.83c0-3.23-0.14-6.45-0.14-9.68c0,0,0.14,0,0.14,0.14
		C452.94,274.38,452.8,277.6,452.8,280.83L452.8,280.83z"/>
	<path id="XMLID_30_" class="st7" d="M216.72,266.8h0.14c12.34,0.14,12.34,0.14,12.34,0.28c-4.07,0-8.28,0-12.34,0
		C216.72,267.08,216.72,266.94,216.72,266.8z"/>
	<path id="XMLID_31_" class="st5" d="M216.72,266.8c0-3.37,0-6.87,0.14-10.24c0,3.37,0,6.87,0,10.24H216.72z"/>
	<path id="XMLID_32_" class="st6" d="M216.86,256.56c0-0.14,0-0.14,24.97-0.14l-0.14,0.14
		C233.42,256.56,225.14,256.56,216.86,256.56z"/>
	<path id="XMLID_33_" class="st5" d="M402.73,244.5c0-0.14,0-0.14,12.34-0.14C411,244.36,406.79,244.5,402.73,244.5z"/>
	<path id="XMLID_34_" class="st0" d="M336.24,233.28c-6.31-0.7-8-7.57-4.07-12.06c6.31-3.93,12.34,0.84,10.52,8
		C341.01,231.87,339.32,233,336.24,233.28L336.24,233.28z"/>
	<path id="XMLID_35_" class="st0" d="M408.62,233.28c-5.33-1.12-7.72-5.61-5.19-10.66c3.09-3.51,7.86-3.79,10.94-0.14
		c2.24,4.77,0.84,8.84-3.93,10.66C409.88,233.14,409.18,233.14,408.62,233.28z"/>
	<path id="XMLID_36_" class="st6" d="M304.39,218.13c0-0.14,0.14-0.28,0.14-0.28c4.07,0,8.14,0,12.2,0c0,0.14,0.14,0.14,0.14,0.28
		C312.81,218.13,308.6,218.13,304.39,218.13L304.39,218.13z"/>
	<path id="XMLID_37_" class="st2" d="M6.03,192.6L6.03,192.6c22.02-0.14,44.05-0.14,66.07-0.14
		C49.94,192.46,27.91,192.46,6.03,192.6z"/>
	<path id="XMLID_38_" class="st1" d="M112.92,192.6c0-0.14,0-0.14,392.77-0.14C374.81,192.46,243.94,192.46,112.92,192.6
		L112.92,192.6z"/>
</g>
</svg>
